<?xml version="1.0" standalone="no"?>
<!DOCTYPE svg PUBLIC "-//W3C//DTD SVG 20010904//EN"
 "http://www.w3.org/TR/2001/REC-SVG-20010904/DTD/svg10.dtd">
<svg version="1.0" xmlns="http://www.w3.org/2000/svg"
 width="1434.000000pt" height="1995.000000pt" viewBox="0 0 1434.000000 1995.000000"
 preserveAspectRatio="xMidYMid meet">

<g transform="translate(0.000000,1995.000000) scale(0.100000,-0.100000)"
fill="#000000" stroke="none">
<path d="M10 18274 l0 -1666 679 -1072 c1693 -2673 2464 -3892 2468 -3903 4
-10 -314 -13 -1571 -13 l-1576 0 0 -3115 0 -3115 1665 0 1665 0 0 1465 0 1465
953 0 953 0 504 -807 c277 -445 688 -1104 913 -1465 l410 -658 1950 0 c1558 0
1947 3 1939 13 -9 11 -1971 3152 -2014 3224 l-19 32 133 41 c870 268 1581 612
2168 1049 1157 862 1830 2017 2024 3471 46 346 51 442 51 920 -1 476 -8 610
-56 945 -196 1383 -830 2494 -1904 3334 -155 121 -501 351 -690 458 -986 559
-2154 905 -3510 1040 -168 16 -404 18 -3657 20 l-3478 3 0 -1666z m7075 -1692
c721 -91 1285 -260 1740 -522 505 -291 832 -653 1010 -1121 135 -353 174 -823
104 -1238 -117 -697 -556 -1254 -1269 -1611 -269 -135 -585 -248 -890 -318
-339 -79 -694 -133 -716 -109 -9 9 -3053 4873 -3088 4935 -6 10 267 12 1461 9
1454 -3 1470 -3 1648 -25z"/>
<path d="M10 1610 l0 -1610 1665 0 1665 0 0 1610 0 1610 -1665 0 -1665 0 0
-1610z"/>
<path d="M8451 3183 c28 -46 836 -1342 1502 -2410 l482 -773 1948 0 c1071 0
1947 3 1947 6 0 3 -451 728 -1002 1610 l-1003 1604 -1948 0 -1949 0 23 -37z"/>
</g>
</svg>
