<svg id="Capa_1" data-name="Capa 1" xmlns="http://www.w3.org/2000/svg" xmlns:xlink="http://www.w3.org/1999/xlink" viewBox="0 0 448.7 453.86"><defs><style>.cls-1{fill:url(#Degradado_sin_nombre_3);}</style><linearGradient id="Degradado_sin_nombre_3" x1="-0.26" y1="227" x2="449.08" y2="227" gradientUnits="userSpaceOnUse"><stop offset="0" stop-color="#8dba38"/><stop offset="1" stop-color="#e9e73c"/></linearGradient></defs><title>LEA_Iso_Color</title><path class="cls-1" d="M265.1,401.33l18.53,29.13C194,479,80.75,450.52,25.21,363.16.45,324.21-2.95,252.42,1.29,182.88H102.83a42.24,42.24,0,0,1,35.79,19.65L242,365h-67.4a37.58,37.58,0,0,1-31.87-17.51l-8.79-13.84a41.93,41.93,0,1,0-23.62,15l8.76,13.8A65.45,65.45,0,0,0,174.59,393H250A17.94,17.94,0,0,1,265.1,401.33ZM162.25,187.5,191,232.6l21.58-45.09a42,42,0,1,1,29.79,12.41,43,43,0,0,1-4.56-.24L213,251.48A17.94,17.94,0,0,0,214,268.86l45.69,71.82,92.44-193.17C287.1,59.2,26.51,0,26.51,0A1394.48,1394.48,0,0,0,3.4,154.87h99.43A70.09,70.09,0,0,1,162.25,187.5ZM449.08,436a32.56,32.56,0,0,0-36.84-13.66,81.59,81.59,0,0,1-37.73,2.22,71.63,71.63,0,0,1-45.45-27.85A196.09,196.09,0,0,0,369,177.17L281.73,359.56a18,18,0,0,0,1,17.37s24.86,38.22,25,38.09a99.32,99.32,0,0,0,61.76,37.08,107.62,107.62,0,0,0,19.09,1.7A112.65,112.65,0,0,0,449.08,436ZM82.19,307.77a18.67,18.67,0,1,0,18.67-18.68A18.67,18.67,0,0,0,82.19,307.77ZM261,157.91a18.68,18.68,0,1,0-18.67,18.67A18.67,18.67,0,0,0,261,157.91Z"/></svg>