<svg id="Capa_1" data-name="Capa 1" xmlns="http://www.w3.org/2000/svg" xmlns:xlink="http://www.w3.org/1999/xlink" viewBox="0 0 2534.7 454.86"><defs><style>.cls-1{fill:url(#Degradado_sin_nombre_3);}.cls-2{fill:#dfdfde;}</style><linearGradient id="Degradado_sin_nombre_3" x1="-0.26" y1="228" x2="449.08" y2="228" gradientUnits="userSpaceOnUse"><stop offset="0" stop-color="#8dba38"/><stop offset="1" stop-color="#e9e73c"/></linearGradient></defs><title>LEA_Horiz_Color</title><path class="cls-1" d="M265.1,402.33l18.53,29.13C194,480,80.75,451.52,25.21,364.16.45,325.21-2.95,253.42,1.29,183.88H102.83a42.24,42.24,0,0,1,35.79,19.65L242,366h-67.4a37.58,37.58,0,0,1-31.87-17.51l-8.79-13.84a41.93,41.93,0,1,0-23.62,15l8.76,13.8A65.45,65.45,0,0,0,174.59,394H250A17.94,17.94,0,0,1,265.1,402.33ZM162.25,188.5,191,233.6l21.58-45.09a42,42,0,1,1,29.79,12.41,43,43,0,0,1-4.56-.24L213,252.48A17.94,17.94,0,0,0,214,269.86l45.69,71.82,92.44-193.17C287.1,60.2,26.51,1,26.51,1A1394.48,1394.48,0,0,0,3.4,155.87h99.43A70.09,70.09,0,0,1,162.25,188.5ZM449.08,437a32.56,32.56,0,0,0-36.84-13.66,81.59,81.59,0,0,1-37.73,2.22,71.63,71.63,0,0,1-45.45-27.85A196.09,196.09,0,0,0,369,178.17L281.73,360.56a18,18,0,0,0,1,17.37s24.86,38.22,25,38.09a99.32,99.32,0,0,0,61.76,37.08,107.62,107.62,0,0,0,19.09,1.7A112.65,112.65,0,0,0,449.08,437ZM82.19,308.77a18.67,18.67,0,1,0,18.67-18.68A18.67,18.67,0,0,0,82.19,308.77ZM261,158.91a18.68,18.68,0,1,0-18.67,18.67A18.67,18.67,0,0,0,261,158.91Z"/><path class="cls-2" d="M610.44,1.86v262c0,37.5,10,49.22,49.65,43.13L662,346.4c-70.65,11.25-103.11-6.57-103.11-82V1.86Z"/><path class="cls-2" d="M903.58,241.39H733.33c0,41.25,33,65.63,75.08,65.63,28.7,1.41,56.43-2.34,83.69-14.06l6.69,38c-26.78,11.73-57.86,19.22-87,19.22-76,1.41-132-46.4-129.59-122.81,1.43-75.47,56.9-113.44,119.55-113.44C882.54,113.89,918.88,166.39,903.58,241.39ZM734.29,205.3h127.2c1.44-34.22-27.25-52-60.25-52C766.81,153.27,741.46,169.67,734.29,205.3Z"/><path class="cls-2" d="M1166.13,277.49c0,20.62-.47,33.75,24.87,31.4v34.69c-33,6.1-66.94,2.35-66.94-35.15v-8.38c-12.92,31.41-45.43,48.22-79.38,48.22-70.29,0-104.24-55.31-104.24-119.06,1.43-75,55.94-116.26,131-114.85,33,0,64.55,8,94.67,21.09ZM1115.93,165c-15.78-7-33.47-9.38-48.3-9.38-44,0-73.64,24.85-75.07,73.6,0,41.25,20.56,73.59,63.12,73.59,38.73,0,58.81-29.53,60.25-71.25Z"/><path class="cls-2" d="M1631.4,291.08V210.46c1.4-56.26-28.13-96.57-89.54-96.57-31.87,0-60.66,13.66-75.19,42.25,0-34.18-31.23-36.07-60.31-36.07H1305.11V90.45c0-56.25,44.54-60.94,84.38-44.53l5.63-35.63C1324.33-13.14,1255.9.45,1255.9,89.51V120h-42.66v38.44H1255V345h50.15V158.42h91.4c22.22,0,22.07,6.12,22.07,36.12V345h51.1V213.74c0-36.57,25.31-58.6,57.18-58.6,30.47,0,53.91,21.56,53.91,57.19V293c0,53.9,33.75,59.53,76.88,51.09V311.71C1635.61,314.05,1631.4,308,1631.4,291.08Z"/><path class="cls-2" d="M1796.63,349.21c-60.71-.47-120.94-39.85-120.94-118.13,0-79.22,62.14-118.13,123.33-117.66,63.1.47,120,39.85,120,117.66C1919,310.3,1857.81,349.68,1796.63,349.21Zm.48-45c34.89,0,69.79-24.38,69.79-73.13,0-47.81-33-72.66-67.88-72.66-35.37,0-71.7,23.44-71.7,72.66C1727.32,279.83,1762.21,304.21,1797.11,304.21Z"/><path class="cls-2" d="M1994.29,19.2c16.1,0,31.71,10.31,31.71,30,0,20.16-15.61,30.47-31.22,30.47-16.1,0-32.69-9.84-32.69-30.47C1962.09,29.05,1978.19,19.2,1994.29,19.2ZM2020.63,345h-53.18V121.39h53.18Z"/><path class="cls-2" d="M2120.21,278.43c1.43,23.43,27.53,34.22,52.21,34.22,25.16,0,53.16-7,54.59-34.69,0-20.63-21.36-26.72-51.26-30.47-47-6.1-99.68-11.25-101.11-62.35,0-48.28,47.47-70.78,97.31-70.78,52.69,0,98.73,23,97.3,68h-45.56c0-22.5-27.53-29.53-51.74-29.53-23.73,0-48.42,11.25-47,31.4.47,18.75,19,23,54.58,27.19,47.94,6.09,94.46,14.07,94.46,67.5,0,50.16-48.89,71.72-99.68,71.72s-101.1-15.93-104.9-72.18Z"/><path class="cls-2" d="M2531.58,241.39H2361.33c0,41.25,33,65.63,75.08,65.63,28.7,1.41,56.43-2.34,83.69-14.06l6.69,38c-26.78,11.73-57.86,19.22-87,19.22-76,1.41-132-46.4-129.59-122.81,1.43-75.47,56.9-113.44,119.55-113.44C2510.54,113.89,2546.88,166.39,2531.58,241.39ZM2362.29,205.3h127.2c1.44-34.22-27.25-52-60.25-52C2394.81,153.27,2369.46,169.67,2362.29,205.3Z"/></svg>