<?xml version="1.0" standalone="no"?>
<!DOCTYPE svg PUBLIC "-//W3C//DTD SVG 20010904//EN"
 "http://www.w3.org/TR/2001/REC-SVG-20010904/DTD/svg10.dtd">
<svg version="1.0" xmlns="http://www.w3.org/2000/svg"
 width="474.000000pt" height="210.000000pt" viewBox="0 0 474.000000 210.000000"
 preserveAspectRatio="xMidYMid meet">

<g transform="translate(0.000000,210.000000) scale(0.100000,-0.100000)"
fill="#000000" stroke="none">
<path d="M920 2070 c-280 -39 -562 -221 -727 -468 -337 -505 -150 -1180 405
-1465 235 -121 482 -145 764 -73 212 54 434 171 591 313 22 19 41 33 43 30 3
-2 -9 -62 -26 -132 -16 -70 -30 -135 -30 -145 0 -44 72 -68 100 -35 7 9 39
127 71 263 58 244 59 247 40 272 l-18 25 -258 3 c-286 3 -305 -1 -305 -57 0
-53 21 -60 178 -63 l141 -3 -62 -51 c-151 -123 -322 -214 -492 -260 -91 -25
-116 -28 -275 -28 -172 -1 -177 0 -263 31 -289 103 -519 351 -587 633 -24 102
-27 262 -6 361 68 320 332 590 655 670 119 30 331 23 476 -15 126 -33 313
-124 425 -206 212 -156 409 -399 548 -676 236 -470 633 -816 1063 -928 402
-104 771 -12 1045 259 44 44 100 109 124 144 231 344 234 793 7 1133 -170 255
-450 431 -744 468 -192 25 -453 -21 -660 -116 l-75 -34 -128 20 c-160 25 -156
25 -176 -5 -15 -23 -15 -27 -1 -49 13 -19 32 -27 94 -38 75 -14 77 -15 51 -28
-23 -11 -47 -10 -164 9 -128 20 -138 20 -156 5 -37 -34 -8 -94 46 -94 11 0 48
-5 84 -11 l64 -11 -27 -22 -27 -22 -139 20 c-156 23 -172 20 -177 -32 -4 -41
7 -46 172 -71 70 -11 131 -22 134 -25 5 -5 -30 -218 -45 -275 -5 -21 28 -61
50 -61 37 0 49 27 76 168 18 99 32 147 45 159 18 17 18 17 12 -22 -24 -144
-19 -165 35 -165 38 0 43 12 74 174 22 115 28 133 52 153 16 12 31 22 34 23 3
0 -3 -45 -14 -101 -18 -96 -18 -101 -1 -120 20 -22 57 -25 73 -5 7 8 24 78 39
155 l26 140 70 32 c125 56 244 81 407 86 175 6 263 -11 404 -81 184 -92 318
-224 405 -401 65 -130 81 -194 87 -340 11 -264 -69 -470 -252 -650 -121 -119
-267 -197 -429 -232 -109 -23 -332 -13 -461 21 -126 33 -313 124 -425 206
-212 157 -409 399 -549 677 -251 500 -698 868 -1153 947 -113 20 -277 27 -358
16z"/>
</g>
</svg>
